<?xml version="1.0" encoding="UTF-8" standalone="no"?>
<!DOCTYPE svg PUBLIC "-//W3C//DTD SVG 1.1//EN" "http://www.w3.org/Graphics/SVG/1.1/DTD/svg11.dtd">
<svg width="100%" height="100%" viewBox="0 0 1080 1080" version="1.1" xmlns="http://www.w3.org/2000/svg" xmlns:xlink="http://www.w3.org/1999/xlink" xml:space="preserve" xmlns:serif="http://www.serif.com/" style="fill-rule:evenodd;clip-rule:evenodd;stroke-linejoin:round;stroke-miterlimit:2;">
    <g>
        <path d="M1041.68,305.203L1044.68,788.662C1044.68,922.076 921.363,1030.39 787.949,1030.39L304.49,1030.39C65.138,1025.34 66.917,1026.35 62.76,788.662L62.76,305.203C62.76,171.789 171.076,46.473 304.49,46.473L787.949,51.473C856.107,51.473 1021.08,50.531 1032.74,65.414C1048.16,85.105 1041.68,305.203 1041.68,305.203Z" style="fill:rgb(17,202,94);"/>
        <path d="M1079.9,0.77L1079.9,1078.81L-0.927,1078.81L-0.927,0.77L1079.9,0.77ZM1041.68,305.203C1041.68,305.203 1048.16,85.105 1032.74,65.414C1021.08,50.531 856.107,51.473 787.949,51.473L304.49,46.473C171.076,46.473 62.76,171.789 62.76,305.203L62.76,788.662C66.917,1026.35 65.138,1025.34 304.49,1030.39L787.949,1030.39C921.363,1030.39 1044.68,922.076 1044.68,788.662L1041.68,305.203Z" style="fill:rgb(28,61,76);"/>
        <g transform="matrix(0.433037,-0.901376,0.901376,0.433037,-467.651,860.538)">
            <path d="M286.752,669.594C292.758,672.442 298.385,675.593 303.634,679.047C309.14,682.672 314.23,686.63 318.903,690.923C323.695,695.326 328.049,700.08 331.964,705.186C335.865,710.273 339.331,715.709 342.361,721.494C349.902,735.89 355.237,755.656 358.366,780.791C360.587,798.622 361.697,819.156 361.697,842.393C361.697,859.965 361.759,875.075 361.884,887.72C362.12,911.617 362.578,926.717 363.259,933.018C364.166,940.729 365.678,947.427 367.795,953.114C370.54,960.486 374.301,966.157 379.08,970.127C384.155,974.343 392.157,977.296 403.085,978.984C410.38,980.11 418.98,980.674 428.884,980.674L440.994,980.674L440.994,1042L419.119,1042C408.588,1042 399.255,1041.65 391.119,1040.94C379.537,1039.93 370.38,1038.2 363.65,1035.75C355.367,1032.78 347.792,1028.88 340.925,1024.07C333.973,1019.21 327.746,1013.4 322.244,1006.65C316.509,999.619 311.831,991.604 308.208,982.604C304.921,974.438 302.503,965.461 300.955,955.674C299.024,943.47 297.62,926.64 296.742,905.182C296.141,890.465 295.787,873.572 295.681,854.502C295.578,835.978 295.17,819.71 294.457,805.7C293.366,784.259 291.561,768.104 289.041,757.236C287.024,748.542 284.017,740.731 280.02,733.805C275.756,726.417 270.364,720.035 263.845,714.658C257.184,709.164 249.491,705.047 240.765,702.306C232.946,699.849 224.298,698.498 214.822,698.252L214.822,669.594L286.752,669.594Z" style="fill:rgb(28,61,76);"/>
        </g>
        <g transform="matrix(0.904632,-0.426194,-0.426194,-0.904632,249.769,1580.57)">
            <path d="M286.752,669.594C292.758,672.442 298.385,675.593 303.634,679.047C309.14,682.672 314.23,686.63 318.903,690.923C323.695,695.326 328.049,700.08 331.964,705.186C335.865,710.273 339.331,715.709 342.361,721.494C349.902,735.89 355.237,755.656 358.366,780.791C360.587,798.622 361.697,819.156 361.697,842.393C361.697,859.965 361.759,875.075 361.884,887.72C362.12,911.617 362.578,926.717 363.259,933.018C364.166,940.729 365.678,947.427 367.795,953.114C370.54,960.486 374.301,966.157 379.08,970.127C384.155,974.343 392.157,977.296 403.085,978.984C410.38,980.11 418.98,980.674 428.884,980.674L440.994,980.674L440.994,1042L419.119,1042C408.588,1042 399.255,1041.65 391.119,1040.94C379.537,1039.93 370.38,1038.2 363.65,1035.75C355.367,1032.78 347.792,1028.88 340.925,1024.07C333.973,1019.21 327.746,1013.4 322.244,1006.65C316.509,999.619 311.831,991.604 308.208,982.604C304.921,974.438 302.503,965.461 300.955,955.674C299.024,943.47 297.62,926.64 296.742,905.182C296.141,890.465 295.787,873.572 295.681,854.502C295.578,835.978 295.17,819.71 294.457,805.7C293.366,784.259 291.561,768.104 289.041,757.236C287.024,748.542 284.017,740.731 280.02,733.805C275.756,726.417 270.364,720.035 263.845,714.658C257.184,709.164 249.491,705.047 240.765,702.306C232.946,699.849 224.298,698.498 214.822,698.252L214.822,669.594L286.752,669.594Z" style="fill:rgb(28,61,76);"/>
        </g>
        <g transform="matrix(0.807104,-1.24283,1.24283,0.807104,-630.534,539.047)">
            <path d="M286.752,669.594C292.758,672.442 298.385,675.593 303.634,679.047C309.14,682.672 314.23,686.63 318.903,690.923C323.695,695.326 328.049,700.08 331.964,705.186C335.865,710.273 339.331,715.709 342.361,721.494C349.902,735.89 355.237,755.656 358.366,780.791C360.587,798.622 361.697,819.156 361.697,842.393C361.697,859.965 361.759,875.075 361.884,887.72C362.12,911.617 362.578,926.717 363.259,933.018C364.166,940.729 365.678,947.427 367.795,953.114C370.54,960.486 374.301,966.157 379.08,970.127C384.155,974.343 392.157,977.296 403.085,978.984C410.38,980.11 418.98,980.674 428.884,980.674L440.994,980.674L440.994,1042L419.119,1042C408.588,1042 399.255,1041.65 391.119,1040.94C379.537,1039.93 370.38,1038.2 363.65,1035.75C355.367,1032.78 347.792,1028.88 340.925,1024.07C333.973,1019.21 327.746,1013.4 322.244,1006.65C316.509,999.619 311.831,991.604 308.208,982.604C304.921,974.438 302.503,965.461 300.955,955.674C299.024,943.47 297.62,926.64 296.742,905.182C296.141,890.465 295.787,873.572 295.681,854.502C295.578,835.978 295.17,819.71 294.457,805.7C293.366,784.259 291.561,768.104 289.041,757.236C287.024,748.542 284.017,740.731 280.02,733.805C275.756,726.417 270.364,720.035 263.845,714.658C257.184,709.164 249.491,705.047 240.765,702.306C232.946,699.849 224.298,698.498 214.822,698.252L214.822,669.594L286.752,669.594Z" style="fill:rgb(28,61,76);"/>
        </g>
        <g transform="matrix(1.24283,-0.807104,-0.807104,-1.24283,589.588,1751.98)">
            <path d="M286.752,669.594C292.758,672.442 298.385,675.593 303.634,679.047C309.14,682.672 314.23,686.63 318.903,690.923C323.695,695.326 328.049,700.08 331.964,705.186C335.865,710.273 339.331,715.709 342.361,721.494C349.902,735.89 355.237,755.656 358.366,780.791C360.587,798.622 361.697,819.156 361.697,842.393C361.697,859.965 361.759,875.075 361.884,887.72C362.12,911.617 362.578,926.717 363.259,933.018C364.166,940.729 365.678,947.427 367.795,953.114C370.54,960.486 374.301,966.157 379.08,970.127C384.155,974.343 392.157,977.296 403.085,978.984C410.38,980.11 418.98,980.674 428.884,980.674L440.994,980.674L440.994,1042L419.119,1042C408.588,1042 399.255,1041.65 391.119,1040.94C379.537,1039.93 370.38,1038.2 363.65,1035.75C355.367,1032.78 347.792,1028.88 340.925,1024.07C333.973,1019.21 327.746,1013.4 322.244,1006.65C316.509,999.619 311.831,991.604 308.208,982.604C304.921,974.438 302.503,965.461 300.955,955.674C299.024,943.47 297.62,926.64 296.742,905.182C296.141,890.465 295.787,873.572 295.681,854.502C295.578,835.978 295.17,819.71 294.457,805.7C293.366,784.259 291.561,768.104 289.041,757.236C287.024,748.542 284.017,740.731 280.02,733.805C275.756,726.417 270.364,720.035 263.845,714.658C257.184,709.164 249.491,705.047 240.765,702.306C232.946,699.849 224.298,698.498 214.822,698.252L214.822,669.594L286.752,669.594Z" style="fill:rgb(28,61,76);"/>
        </g>
        <g transform="matrix(0.540874,-0.832874,0.832874,0.540874,-109.318,428.881)">
            <path d="M286.752,669.594C292.758,672.442 298.385,675.593 303.634,679.047C309.14,682.672 314.23,686.63 318.903,690.923C323.695,695.326 328.049,700.08 331.964,705.186C335.865,710.273 339.331,715.709 342.361,721.494C349.902,735.89 355.237,755.656 358.366,780.791C360.587,798.622 361.697,819.156 361.697,842.393C361.697,859.965 361.759,875.075 361.884,887.72C362.12,911.617 362.578,926.717 363.259,933.018C364.166,940.729 365.678,947.427 367.795,953.114C370.54,960.486 374.301,966.157 379.08,970.127C384.155,974.343 392.157,977.296 403.085,978.984C410.38,980.11 418.98,980.674 428.884,980.674L440.994,980.674L440.994,1042L419.119,1042C408.588,1042 399.255,1041.65 391.119,1040.94C379.537,1039.93 370.38,1038.2 363.65,1035.75C355.367,1032.78 347.792,1028.88 340.925,1024.07C333.973,1019.21 327.746,1013.4 322.244,1006.65C316.509,999.619 311.831,991.604 308.208,982.604C304.921,974.438 302.503,965.461 300.955,955.674C299.024,943.47 297.62,926.64 296.742,905.182C296.141,890.465 295.787,873.572 295.681,854.502C295.578,835.978 295.17,819.71 294.457,805.7C293.366,784.259 291.561,768.104 289.041,757.236C287.024,748.542 284.017,740.731 280.02,733.805C275.756,726.417 270.364,720.035 263.845,714.658C257.184,709.164 249.491,705.047 240.765,702.306C232.946,699.849 224.298,698.498 214.822,698.252L214.822,669.594L286.752,669.594Z" style="fill:rgb(28,61,76);"/>
        </g>
        <g transform="matrix(0.832874,-0.540874,-0.540874,-0.832874,708.337,1241.72)">
            <path d="M286.752,669.594C292.758,672.442 298.385,675.593 303.634,679.047C309.14,682.672 314.23,686.63 318.903,690.923C323.695,695.326 328.049,700.08 331.964,705.186C335.865,710.273 339.331,715.709 342.361,721.494C349.902,735.89 355.237,755.656 358.366,780.791C360.587,798.622 361.697,819.156 361.697,842.393C361.697,859.965 361.759,875.075 361.884,887.72C362.12,911.617 362.578,926.717 363.259,933.018C364.166,940.729 365.678,947.427 367.795,953.114C370.54,960.486 374.301,966.157 379.08,970.127C384.155,974.343 392.157,977.296 403.085,978.984C410.38,980.11 418.98,980.674 428.884,980.674L440.994,980.674L440.994,1042L419.119,1042C408.588,1042 399.255,1041.65 391.119,1040.94C379.537,1039.93 370.38,1038.2 363.65,1035.75C355.367,1032.78 347.792,1028.88 340.925,1024.07C333.973,1019.21 327.746,1013.4 322.244,1006.65C316.509,999.619 311.831,991.604 308.208,982.604C304.921,974.438 302.503,965.461 300.955,955.674C299.024,943.47 297.62,926.64 296.742,905.182C296.141,890.465 295.787,873.572 295.681,854.502C295.578,835.978 295.17,819.71 294.457,805.7C293.366,784.259 291.561,768.104 289.041,757.236C287.024,748.542 284.017,740.731 280.02,733.805C275.756,726.417 270.364,720.035 263.845,714.658C257.184,709.164 249.491,705.047 240.765,702.306C232.946,699.849 224.298,698.498 214.822,698.252L214.822,669.594L286.752,669.594Z" style="fill:rgb(28,61,76);"/>
        </g>
        <g transform="matrix(-0.994666,-0.103149,0.103149,-0.994666,1485.46,627.472)">
            <path d="M807.917,150.489C807.917,150.489 911.315,270.84 911.315,322.419C911.315,379.486 864.984,425.817 807.917,425.817C750.849,425.817 704.518,379.486 704.518,322.419C704.518,270.84 807.917,150.489 807.917,150.489Z" style="fill:rgb(28,61,76);"/>
        </g>
        <g transform="matrix(0.0143536,-0.999897,0.999897,0.0143536,556.392,1211.74)">
            <path d="M807.917,150.489C807.917,150.489 911.315,270.84 911.315,322.419C911.315,379.486 864.984,425.817 807.917,425.817C750.849,425.817 704.518,379.486 704.518,322.419C704.518,270.84 807.917,150.489 807.917,150.489Z" style="fill:rgb(28,61,76);"/>
        </g>
    </g>
</svg>
