<svg width="646" height="207" viewBox="0 0 646 207" fill="none" xmlns="http://www.w3.org/2000/svg">
<g clip-path="url(#clip0_8199_2)">
<path d="M540.25 184.99C539.69 184.44 541.96 182.05 542.4 181.56C547 176.4 554.92 170.54 561.63 168.66C579.1 163.74 613.45 171.97 626.51 161.7C630.03 158.93 634.54 151.54 638.19 149.56C645.23 145.73 645.44 155.18 644.96 160.29C643.07 180.12 624.72 184.78 607.97 185.38C586.39 186.14 564.49 184.96 542.97 184.61C542.05 184.6 541.2 185.11 540.26 185L540.25 184.99Z" fill="white"/>
<path d="M0 47.27H23.7V61.6H24.12C27.77 56.26 32.79 52.12 39.19 49.16C45.58 46.21 52.15 44.73 58.9 44.73C66.62 44.73 73.62 46.07 79.87 48.73C86.12 51.4 91.46 55.13 95.89 59.9C100.32 64.68 103.72 70.26 106.11 76.66C108.5 83.05 109.69 89.9 109.69 97.21C109.69 104.52 108.49 111.58 106.11 117.97C103.72 124.37 100.31 129.91 95.89 134.62C91.46 139.33 86.12 143.02 79.87 145.68C73.62 148.35 66.62 149.68 58.9 149.68C51.73 149.68 44.99 148.17 38.67 145.15C32.35 142.13 27.5 138.02 24.13 132.82H23.71V206.59H0V47.27ZM56.58 62.44C51.52 62.44 46.95 63.32 42.88 65.07C38.8 66.83 35.36 69.21 32.55 72.23C29.74 75.25 27.56 78.91 26.02 83.19C24.47 87.48 23.7 92.15 23.7 97.2C23.7 102.25 24.47 106.93 26.02 111.21C27.56 115.5 29.74 119.15 32.55 122.17C35.36 125.19 38.8 127.58 42.88 129.33C46.95 131.09 51.52 131.96 56.58 131.96C61.64 131.96 66.2 131.08 70.28 129.33C74.35 127.58 77.79 125.19 80.61 122.17C83.42 119.15 85.6 115.5 87.14 111.21C88.68 106.93 89.46 102.25 89.46 97.2C89.46 92.15 88.69 87.47 87.14 83.19C85.59 78.91 83.42 75.25 80.61 72.23C77.8 69.21 74.36 66.82 70.28 65.07C66.2 63.31 61.64 62.44 56.58 62.44Z" fill="white"/>
<path d="M225.84 47.79H248.39V64.03H246.31C247.65 61.22 249.42 58.66 251.65 56.36C253.87 54.06 256.36 52.1 259.1 50.46C261.84 48.83 264.85 47.53 268.11 46.57C271.37 45.61 274.63 45.12 277.9 45.12C281.17 45.12 284.13 45.57 286.8 46.46L285.91 67.46C284.28 67.01 285.17 67.23 283.54 66.93C281.91 66.63 280.28 66.48 278.64 66.48C268.85 66.48 261.36 69.23 256.17 74.71C250.98 80.2 248.38 88.73 248.38 100.3V148.68H225.83V47.79H225.84Z" fill="white"/>
<path d="M386.29 0H412.14V148.48H386.29V0Z" fill="white"/>
<path d="M525.04 97.05C525.04 90.53 524.14 84.03 522.37 77.71C520.58 71.34 517.64 65.53 513.63 60.45C509.6 55.35 504.4 51.16 498.17 48.01C491.92 44.85 484.19 43.25 475.21 43.25C467.66 43.25 460.56 44.63 454.12 47.34C447.68 50.06 442.06 53.87 437.41 58.66C432.76 63.46 429.06 69.18 426.43 75.67C423.79 82.17 422.45 89.29 422.45 96.84C422.45 104.39 423.68 111.5 426.1 117.97C428.53 124.47 432.05 130.2 436.56 135C441.08 139.81 446.68 143.63 453.18 146.34C459.69 149.05 467.03 150.43 475 150.43C498.71 150.43 514.52 141.9 523.36 124.34C523.43 124.2 525.07 120.79 524.75 117.64L524.61 116.3L504 116.26L503.55 116.81C500.04 121.13 496.15 124.64 491.99 127.26C487.93 129.81 483.06 131.11 477.52 131.11C473.38 131.11 469.32 130.43 465.45 129.1C461.59 127.77 458.16 125.89 455.24 123.5C452.34 121.13 449.97 118.22 448.19 114.86C446.65 111.95 445.78 108.72 445.58 105.24H525.05V97.05H525.04ZM445.59 87.18C445.78 84.53 446.46 81.83 447.61 79.12C449 75.88 450.97 72.9 453.49 70.25C455.99 67.62 459.11 65.44 462.75 63.78C466.37 62.13 470.42 61.3 474.79 61.3C479.16 61.3 483.31 62 486.67 63.38C490 64.75 492.81 66.67 495.03 69.07C497.25 71.49 498.94 74.37 500.05 77.64C501.03 80.54 501.65 83.74 501.88 87.17H445.59V87.18Z" fill="white"/>
<path d="M638.04 97.05C638.04 90.53 637.14 84.03 635.37 77.71C633.58 71.34 630.64 65.53 626.63 60.45C622.6 55.35 617.4 51.16 611.17 48.01C604.92 44.85 597.19 43.25 588.21 43.25C580.66 43.25 573.56 44.63 567.12 47.34C560.68 50.06 555.06 53.87 550.41 58.66C545.76 63.46 542.06 69.18 539.43 75.67C536.79 82.17 535.45 89.29 535.45 96.84C535.45 104.39 536.68 111.5 539.1 117.97C541.53 124.47 545.05 130.2 549.56 135C554.08 139.81 559.68 143.63 566.18 146.34C572.69 149.05 580.03 150.43 588 150.43C611.71 150.43 627.52 141.9 636.36 124.34C636.43 124.2 638.07 120.79 637.75 117.64L637.61 116.3L617 116.26L616.55 116.81C613.04 121.13 609.15 124.64 604.99 127.26C600.93 129.81 596.06 131.11 590.52 131.11C586.38 131.11 582.32 130.43 578.45 129.1C574.59 127.77 571.16 125.89 568.24 123.5C565.34 121.13 562.97 118.22 561.19 114.86C559.65 111.95 558.78 108.72 558.58 105.24H638.05V97.05H638.04ZM558.59 87.18C558.78 84.53 559.46 81.83 560.61 79.12C562 75.88 563.97 72.9 566.49 70.25C568.99 67.62 572.11 65.44 575.75 63.78C579.37 62.13 583.42 61.3 587.79 61.3C592.16 61.3 596.31 62 599.67 63.38C603 64.75 605.81 66.67 608.03 69.07C610.25 71.49 611.94 74.37 613.05 77.64C614.03 80.54 614.65 83.74 614.88 87.17H558.59V87.18Z" fill="white"/>
<path d="M202.41 57.35C209.93 65.9 210.19 73.52 209.89 84.54C209.43 101.32 208.02 120.74 209.23 137.36C209.33 138.76 211.15 146.04 210.82 146.36C203.67 147.43 196.4 146.9 189.18 146.95C188.77 146.84 188.65 146.57 188.66 146.2C188.71 143.61 189.27 140.15 188.29 139.61C187.48 139.16 184.82 141.31 184.01 141.88C169.47 152.1 141.47 153.29 127.25 142.06C114.44 131.94 112.67 113.29 125 101.91C134.62 93.04 148.03 91.69 160.31 90.05C166.93 89.16 174.07 89.19 180.43 87.69C183.49 86.97 186.32 86.29 186.76 82.62C189 64.05 164.82 58.49 151.82 67.02C149.03 68.85 144.71 73.8 143.25 76.8C142.83 77.66 141.75 81.37 141.24 81.51L118.48 80.89C118.7 79.77 118.81 79.38 118.91 78.74C120.96 65.75 126.88 58.34 138.39 52.01C156.36 42.12 187.87 40.82 202.4 57.32L202.41 57.35ZM143.18 111.05C139.41 115.52 140.48 123.49 144.95 127.22C155.69 136.19 177.21 132.36 184.61 120.65C187.78 115.63 187.34 112.44 187.16 106.99C187.12 105.73 187.14 103.05 186.12 102.54C184.89 101.93 177.68 103.47 175.8 103.66C173.24 103.92 171.44 104.12 168.79 104.53C162.68 105.47 147.2 106.29 143.18 111.05Z" fill="white"/>
<path d="M368.11 58.15C371.4 62.64 373.05 68.05 373.29 73.65C373.32 74.27 373.47 75.41 372.76 75.64L360.65 75.7C359.4 75.7 358.54 75.68 357.24 75.68L350.43 75.92C349.18 75.69 348.73 71.13 348.12 69.87C343.96 61.22 321.05 60.16 318.02 70.39C316.47 75.63 318.36 80.03 323.1 82.43C333.91 87.91 348.66 86.01 359.84 91.11C377.61 99.22 382.51 121.86 369.07 136.3C351.94 154.69 301.01 150.95 292.46 125.16C291.11 121.08 291.53 118.35 292.36 114.23L315.5 114.58C316.32 114.86 316.43 118.78 316.72 119.89C320.28 133.57 350.73 132.93 352.71 119.34C354.02 110.34 346.22 107.44 339.12 105.6C327.17 102.51 314 102.66 303.59 95.09C289.16 84.6 289.9 64.75 302.94 53.46C312.09 45.54 324.65 44.11 336.36 44.95C347.41 45.74 361.17 48.68 368.11 58.16V58.15Z" fill="white"/>
</g>
<defs>
<clipPath id="clip0_8199_2">
<rect width="645.11" height="206.6" fill="white"/>
</clipPath>
</defs>
</svg>
